# xmcd CD database file
#
# Track frame offsets:
#	189
#	14446
#	33544
#	53287
#	70668
#	87473
#	103825
#	117308
#	132995
#	150437
#	163489
#	174667
#
# Disc length: 2516 seconds
#
# Revision: 0
# Processed by: cddbd v1.5.2PL0 Copyright (c) Steve Scherf et al.
# Submitted via: CDex 1.70beta2
#
DISCID=9d09d20c
DTITLE=Hallmark Collections - Winter Nights
DYEAR=2008
DGENRE=Jazz
TTITLE0=Deck The Halls
TTITLE1=Jingle Bells
TTITLE2=Christmas Party
TTITLE3=Up on the Housetop
TTITLE4=Jolly Old St. Nicholas
TTITLE5=Carol of the Bells
TTITLE6=Dance of the Sugar Plum Fairy
TTITLE7=Greensleeves
TTITLE8=Feliz Navidad
TTITLE9=Here We Come A-Wassailing
TTITLE10=Fum, Fum, Fum
TTITLE11=Sleigh Ride
EXTD=YEAR: 2008
EXTT0=
EXTT1=
EXTT2=
EXTT3=
EXTT4=
EXTT5=
EXTT6=
EXTT7=
EXTT8=
EXTT9=
EXTT10=
EXTT11=
PLAYORDER=
